<svg xmlns="http://www.w3.org/2000/svg" width="19.602" height="24" viewBox="0 0 19.602 24"><defs><style>.a{fill:#00aeef;}</style></defs><g transform="translate(0.001)"><path class="a" d="M19.54,5.364l-.53-1.588a1.478,1.478,0,0,0-1.4-1.011H13.153V1.315A1.316,1.316,0,0,0,11.84,0H7.761A1.316,1.316,0,0,0,6.447,1.315v1.45H1.994A1.478,1.478,0,0,0,.59,3.776L.06,5.364A1.189,1.189,0,0,0,1.188,6.93h.554L2.961,22.005A2.181,2.181,0,0,0,5.123,24h9.6a2.181,2.181,0,0,0,2.161-2L18.106,6.93h.307A1.189,1.189,0,0,0,19.54,5.364ZM7.854,1.406h3.894V2.765H7.854Zm7.631,20.485a.767.767,0,0,1-.76.7h-9.6a.767.767,0,0,1-.76-.7L3.153,6.93H16.7ZM1.49,5.524l.435-1.3a.073.073,0,0,1,.07-.05H17.607a.073.073,0,0,1,.07.05l.435,1.3Zm0,0" transform="translate(0)"/><path class="a" d="M268.962,179.656H269a.7.7,0,0,0,.7-.667l.66-12.675a.7.7,0,1,0-1.4-.073l-.66,12.675A.7.7,0,0,0,268.962,179.656Zm0,0" transform="translate(-255.72 -157.815)"/><path class="a" d="M106.486,178.995a.7.7,0,0,0,.7.665h.039a.7.7,0,0,0,.664-.74l-.692-12.675a.7.7,0,1,0-1.4.077Zm0,0" transform="translate(-100.835 -157.817)"/><path class="a" d="M194.957,179.659a.7.7,0,0,0,.7-.7V166.281a.7.7,0,0,0-1.406,0v12.675A.7.7,0,0,0,194.957,179.659Zm0,0" transform="translate(-185.149 -157.817)"/></g></svg>